<svg width="32" height="32" viewBox="0 0 32 32" fill="none" xmlns="http://www.w3.org/2000/svg">
<path fill-rule="evenodd" clip-rule="evenodd" d="M10.3337 10C10.3337 6.87043 12.8707 4.33337 16.0003 4.33337C19.1299 4.33337 21.667 6.87043 21.667 10C21.667 13.1297 19.1299 15.6667 16.0003 15.6667C12.8707 15.6667 10.3337 13.1297 10.3337 10ZM16.0003 6.33337C13.9753 6.33337 12.3337 7.975 12.3337 10C12.3337 12.0251 13.9753 13.6667 16.0003 13.6667C18.0254 13.6667 19.667 12.0251 19.667 10C19.667 7.975 18.0254 6.33337 16.0003 6.33337Z" fill="#C4C4C4" fill-opacity="0.8"/>
<path fill-rule="evenodd" clip-rule="evenodd" d="M10.667 19.6667C9.01014 19.6667 7.66699 21.0099 7.66699 22.6667V24.2511C7.66699 24.2752 7.68448 24.2958 7.70829 24.2997C13.2 25.1963 18.8007 25.1963 24.2924 24.2997C24.3162 24.2958 24.3337 24.2752 24.3337 24.2511V22.6667C24.3337 21.0099 22.9905 19.6667 21.3337 19.6667H20.8792C20.844 19.6667 20.8091 19.6723 20.7757 19.6832L19.6217 20.06C17.2686 20.8284 14.7321 20.8284 12.379 20.06L11.225 19.6832C11.1915 19.6723 11.1566 19.6667 11.1215 19.6667H10.667ZM5.66699 22.6667C5.66699 19.9053 7.90557 17.6667 10.667 17.6667H11.1215C11.3675 17.6667 11.6119 17.7056 11.8458 17.782L12.9998 18.1588C14.9495 18.7954 17.0512 18.7954 19.0009 18.1588L20.1549 17.782C20.3887 17.7056 20.6332 17.6667 20.8792 17.6667H21.3337C24.0951 17.6667 26.3337 19.9053 26.3337 22.6667V24.2511C26.3337 25.2554 25.6058 26.1117 24.6146 26.2735C18.9095 27.205 13.0911 27.205 7.38602 26.2735C6.39484 26.1117 5.66699 25.2554 5.66699 24.2511V22.6667Z" fill="#C4C4C4" fill-opacity="0.8"/>
</svg>
