<svg width="33" height="33" viewBox="0 0 33 33" fill="none" xmlns="http://www.w3.org/2000/svg">
<g filter="url(#filter0_d_404_2245)">
<path d="M16.0003 5C13.2389 5 11.0003 7.23858 11.0003 10C11.0003 12.7614 13.2389 15 16.0003 15C18.7617 15 21.0003 12.7614 21.0003 10C21.0003 7.23858 18.7617 5 16.0003 5Z" fill="black"/>
<path d="M10.667 17.6667C7.90557 17.6667 5.66699 19.9052 5.66699 22.6667V24.251C5.66699 25.2554 6.39484 26.1117 7.38602 26.2735C13.0911 27.2049 18.9095 27.2049 24.6146 26.2735C25.6058 26.1117 26.3337 25.2554 26.3337 24.251V22.6667C26.3337 19.9052 24.0951 17.6667 21.3337 17.6667H20.8792C20.6332 17.6667 20.3887 17.7056 20.1549 17.7819L19.0009 18.1587C17.0512 18.7954 14.9495 18.7954 12.9998 18.1587L11.8458 17.7819C11.6119 17.7056 11.3675 17.6667 11.1215 17.6667H10.667Z" fill="black"/>
</g>
<defs>
<filter id="filter0_d_404_2245" x="0" y="0" width="38" height="38" filterUnits="userSpaceOnUse" color-interpolation-filters="sRGB">
<feFlood flood-opacity="0" result="BackgroundImageFix"/>
<feColorMatrix in="SourceAlpha" type="matrix" values="0 0 0 0 0 0 0 0 0 0 0 0 0 0 0 0 0 0 127 0" result="hardAlpha"/>
<feOffset dx="3" dy="3"/>
<feGaussianBlur stdDeviation="1.5"/>
<feComposite in2="hardAlpha" operator="out"/>
<feColorMatrix type="matrix" values="0 0 0 0 0 0 0 0 0 0 0 0 0 0 0 0 0 0 0.1 0"/>
<feBlend mode="normal" in2="BackgroundImageFix" result="effect1_dropShadow_404_2245"/>
<feBlend mode="normal" in="SourceGraphic" in2="effect1_dropShadow_404_2245" result="shape"/>
</filter>
</defs>
</svg>
