<svg width="19" height="25" viewBox="0 0 19 25" fill="none" xmlns="http://www.w3.org/2000/svg">
<path fill-rule="evenodd" clip-rule="evenodd" d="M0 3.52564C0 1.57848 1.50923 0 3.37097 0H13.1613C13.8523 0 14.501 0.348171 14.904 0.935319L18.5975 6.31724C18.8592 6.69856 19 7.15613 19 7.62551V21.4744C19 23.4215 17.4908 25 15.629 25H3.37097C1.50923 25 0 23.4215 0 21.4744V3.52564ZM3.37097 1.92308C2.52473 1.92308 1.83871 2.64057 1.83871 3.52564V21.4744C1.83871 22.3594 2.52472 23.0769 3.37097 23.0769H15.629C16.4753 23.0769 17.1613 22.3594 17.1613 21.4744V8.52185H13.1774C12.6697 8.52185 12.2581 8.09136 12.2581 7.56032V1.92308H3.37097Z" fill="#C4C4C4" fill-opacity="0.8"/>
<path d="M13.8406 11.5136C14.1923 11.8967 14.1804 12.5054 13.8141 12.8731L9.98346 16.7193C9.6277 17.0765 9.06585 17.0765 8.71009 16.7193L6.41171 14.4116C6.04542 14.0438 6.03355 13.4351 6.38518 13.0521C6.73681 12.669 7.31879 12.6565 7.68507 13.0243L9.34678 14.6927L12.5407 11.4858C12.907 11.1181 13.489 11.1305 13.8406 11.5136Z" fill="#C4C4C4" fill-opacity="0.8"/>
</svg>
