<svg width="32" height="32" viewBox="0 0 32 32" fill="none" xmlns="http://www.w3.org/2000/svg">
<path d="M6.33221 1.93299C6.80484 1.44775 6.74897 0.711067 6.20742 0.287572C5.66587 -0.135922 4.84371 -0.0858634 4.37107 0.399381L2.12937 2.70089C0.857792 4.00638 0.138969 5.67092 0.098646 7.40331L0.000288713 11.629C-0.014699 12.2729 0.555721 12.8058 1.27436 12.8192C1.993 12.8326 2.58772 12.3215 2.6027 11.6776L2.70106 7.45194C2.72865 6.26662 3.22048 5.12773 4.0905 4.2345L6.33221 1.93299Z" fill="black"/>
<path fill-rule="evenodd" clip-rule="evenodd" d="M5.99937 10.1549C6.24041 6.70192 9.43617 4.01194 13.2974 4.01194H14.2647V2.84577C14.2647 1.98703 15.0416 1.29088 16 1.29088C16.9584 1.29088 17.7353 1.98703 17.7353 2.84577V4.01194H18.7026C22.5638 4.01194 25.7596 6.70192 26.0006 10.1549L26.3841 15.6491C26.5303 17.7438 27.3152 19.7625 28.6532 21.4852C29.8622 23.0417 28.7859 25.1915 26.6846 25.4174L20.7721 26.0531V27.724C20.7721 30.0856 18.6356 32 16 32C13.3644 32 11.2279 30.0856 11.2279 27.724V26.0531L5.31541 25.4174C3.21406 25.1915 2.13777 23.0417 3.34674 21.4852C4.68478 19.7625 5.46964 17.7438 5.61586 15.6491L5.99937 10.1549ZM13.8308 27.724C13.8308 28.7975 14.802 29.6677 16 29.6677C17.198 29.6677 18.1692 28.7975 18.1692 27.724V26.5579H13.8308V27.724Z" fill="black"/>
<path d="M25.7926 0.287574C25.251 0.711068 25.1952 1.44775 25.6678 1.93299L27.9095 4.2345C28.7795 5.12773 29.2714 6.26662 29.2989 7.45194L29.3973 11.6776C29.4123 12.3215 30.007 12.8326 30.7256 12.8192C31.4443 12.8058 32.0147 12.2729 31.9997 11.629L31.9014 7.40331C31.861 5.67092 31.1422 4.00639 29.8706 2.70089L27.6289 0.399383C27.1563 -0.0858619 26.3341 -0.135921 25.7926 0.287574Z" fill="black"/>
</svg>
