<?xml version="1.0" encoding="utf-8"?>
<!-- Generator: Adobe Illustrator 25.0.0, SVG Export Plug-In . SVG Version: 6.00 Build 0)  -->
<svg version="1.1" id="Layer_1" xmlns="http://www.w3.org/2000/svg" xmlns:xlink="http://www.w3.org/1999/xlink" x="0px" y="0px"
	 viewBox="0 0 32 32" style="enable-background:new 0 0 32 32;" xml:space="preserve">
<style type="text/css">
	.st0{fill-rule:evenodd;clip-rule:evenodd;}
</style>
<path class="st0" d="M26.1,21.6c0-0.1,0-0.1-0.1-0.1L26.1,21.6z M6,14c2.6,5.6,7.2,10.1,12.9,12.6l1,0.5c2.2,1,4.7,0.3,6.1-1.6
	l1.7-2.4c0.7-1,0.5-2.4-0.4-3.2l-3-2.4c-1-0.8-2.6-0.6-3.3,0.4l-0.7,0.9c-2.9-1.5-5.3-3.9-6.8-6.8l0.9-0.7c1.1-0.8,1.3-2.3,0.4-3.3
	l-2.4-3c-0.8-1-2.2-1.2-3.2-0.4L6.9,6.2c-1.9,1.4-2.6,4-1.6,6.1L6,14L6,14z"/>
</svg>
