<svg width="32" height="32" viewBox="0 0 32 32" fill="none" xmlns="http://www.w3.org/2000/svg">
<path fill-rule="evenodd" clip-rule="evenodd" d="M7.7873 13.1419C10.1704 18.3311 14.411 22.4566 19.6827 24.6921L19.6994 24.6991L20.7178 25.1531C22.0146 25.7309 23.5389 25.3205 24.3704 24.1697L26.0696 21.8181C26.1733 21.6744 26.1466 21.4747 26.0087 21.3634L23.0423 18.9704C22.8949 18.8514 22.678 18.8791 22.5652 19.0313L21.4107 20.5892C21.1304 20.9675 20.624 21.099 20.195 20.9048C16.2532 19.1209 13.0855 15.9533 11.3016 12.0114C11.1075 11.5824 11.2389 11.0761 11.6173 10.7957L13.1751 9.64122C13.3273 9.52841 13.355 9.31157 13.2361 9.16411L10.8427 6.19739C10.7315 6.0595 10.5318 6.03272 10.3882 6.13641L8.02376 7.84329C6.86538 8.67954 6.45743 10.2167 7.04871 11.5173L7.7865 13.1402C7.78677 13.1407 7.78703 13.1413 7.7873 13.1419ZM18.8935 26.5298C13.1655 24.0984 8.55832 19.6143 5.96893 13.9747L5.96737 13.9713L5.22803 12.345C4.24257 10.1773 4.92247 7.61545 6.85311 6.22169L9.2175 4.51482C10.223 3.78894 11.6206 3.97641 12.3993 4.9416L14.7927 7.90833C15.6254 8.94056 15.4315 10.4584 14.3659 11.2481L13.4733 11.9096C14.9811 14.8355 17.371 17.2253 20.2968 18.7332L20.9584 17.8405C21.748 16.775 23.2659 16.581 24.2981 17.4138L27.2644 19.8068C28.2299 20.5857 28.4172 21.9839 27.6907 22.9894L25.9915 25.341C24.6057 27.259 22.0652 27.9429 19.9038 26.98L18.8935 26.5298Z" fill="#C4C4C4" fill-opacity="0.8"/>
</svg>
