<?xml version="1.0" encoding="utf-8"?>
<!-- Generator: Adobe Illustrator 25.0.0, SVG Export Plug-In . SVG Version: 6.00 Build 0)  -->
<svg version="1.1" id="Layer_1" xmlns="http://www.w3.org/2000/svg" xmlns:xlink="http://www.w3.org/1999/xlink" x="0px" y="0px"
	 viewBox="0 0 42 42" style="enable-background:new 0 0 42 42;" xml:space="preserve">
<style type="text/css">
	.st0{fill:#C4C4C4;fill-opacity:0.8;}
	.st1{fill-rule:evenodd;clip-rule:evenodd;fill:#C4C4C4;fill-opacity:0.8;}
</style>
<g>
	<g>
		<path class="st0" d="M23.8,30.1c0,1-0.8,1.8-1.8,1.8c-1,0-1.8-0.8-1.8-1.8c0-1,0.8-1.8,1.8-1.8C23,28.3,23.8,29.1,23.8,30.1z"/>
		<path class="st1" d="M22,15.1c-1.7,0-3.2,1.5-3.2,3.3c0,0.8-0.6,1.4-1.4,1.4c-0.8,0-1.4-0.6-1.4-1.4c0-3.3,2.6-6.1,5.9-6.1
			c3.3,0,5.9,2.8,5.9,6.1c0,2.6-1.6,4.9-3.9,5.7c-0.2,0.1-0.4,0.2-0.5,0.3c-0.1,0.1-0.1,0.2-0.1,0.2c0,0.8-0.6,1.4-1.4,1.4
			c-0.8,0-1.4-0.6-1.4-1.4c0-1.7,1.4-2.7,2.4-3.1c1.2-0.5,2.1-1.7,2.1-3.1C25.2,16.5,23.7,15.1,22,15.1z"/>
	</g>
	<path class="st1" d="M21,7.7C13.7,7.7,7.7,13.7,7.7,21c0,7.3,5.9,13.3,13.3,13.3c7.3,0,13.3-5.9,13.3-13.3
		C34.3,13.7,28.3,7.7,21,7.7z M5,21c0-8.8,7.2-16,16-16c8.8,0,16,7.2,16,16c0,8.8-7.2,16-16,16C12.2,37,5,29.8,5,21z"/>
</g>
</svg>
