<svg width="32" height="32" viewBox="0 0 32 32" fill="none" xmlns="http://www.w3.org/2000/svg">
<path fill-rule="evenodd" clip-rule="evenodd" d="M18.0775 7.379C16.9167 6.26519 15.0841 6.26519 13.9233 7.379L7.75473 13.2981C7.60359 13.4431 7.50193 13.632 7.46415 13.8381C6.7253 17.8672 6.67077 21.9921 7.30282 26.0393L7.45285 27H11.4215V18.7182C11.4215 18.1659 11.8692 17.7182 12.4215 17.7182H19.5794C20.1316 17.7182 20.5794 18.1659 20.5794 18.7182V27H24.548L24.698 26.0393C25.3301 21.9921 25.2755 17.8672 24.5367 13.8381C24.4989 13.632 24.3972 13.4431 24.2461 13.2981L18.0775 7.379ZM12.5386 5.93591C14.4732 4.07955 17.5276 4.07955 19.4622 5.93591L25.6308 11.855C26.0849 12.2907 26.3904 12.8583 26.5039 13.4773C27.2832 17.7275 27.3408 22.0786 26.674 26.3479L26.433 27.8912C26.3334 28.5295 25.7836 29 25.1377 29H19.5794C19.0271 29 18.5794 28.5523 18.5794 28V19.7182H13.4215V28C13.4215 28.5523 12.9737 29 12.4215 29H6.86316C6.21718 29 5.66747 28.5295 5.56779 27.8912L5.32678 26.3479C4.66004 22.0786 4.71757 17.7275 5.49695 13.4773C5.61046 12.8583 5.9159 12.2907 6.37 11.855L12.5386 5.93591Z" fill="#C4C4C4" fill-opacity="0.8"/>
</svg>
