<svg width="64" height="64" viewBox="0 0 64 64" fill="none" xmlns="http://www.w3.org/2000/svg">
<path d="M32.0003 28.666C33.1049 28.666 34.0003 29.5614 34.0003 30.666V43.9993C34.0003 45.1039 33.1049 45.9993 32.0003 45.9993C30.8958 45.9993 30.0003 45.1039 30.0003 43.9993V30.666C30.0003 29.5614 30.8958 28.666 32.0003 28.666Z" fill="#009CA4"/>
<path d="M32.0003 23.9993C33.4731 23.9993 34.667 22.8054 34.667 21.3327C34.667 19.8599 33.4731 18.666 32.0003 18.666C30.5276 18.666 29.3337 19.8599 29.3337 21.3327C29.3337 22.8054 30.5276 23.9993 32.0003 23.9993Z" fill="#009CA4"/>
<path fill-rule="evenodd" clip-rule="evenodd" d="M8.66699 31.9993C8.66699 19.1127 19.1137 8.66602 32.0003 8.66602C44.887 8.66602 55.3337 19.1127 55.3337 31.9993C55.3337 44.886 44.887 55.3327 32.0003 55.3327C19.1137 55.3327 8.66699 44.886 8.66699 31.9993ZM32.0003 12.666C21.3228 12.666 12.667 21.3218 12.667 31.9993C12.667 42.6769 21.3228 51.3327 32.0003 51.3327C42.6778 51.3327 51.3337 42.6769 51.3337 31.9993C51.3337 21.3218 42.6778 12.666 32.0003 12.666Z" fill="#009CA4"/>
</svg>
