<svg width="26" height="22" viewBox="0 0 26 22" fill="none" xmlns="http://www.w3.org/2000/svg">
<path fill-rule="evenodd" clip-rule="evenodd" d="M0.738381 6.13756C0.364857 9.60809 0.381507 13.6107 0.901271 17.0672C1.18887 18.9797 2.74976 20.4459 4.67652 20.6134L6.69016 20.7884C10.8889 21.1534 15.1114 21.1534 19.3101 20.7884L21.3237 20.6134C23.2505 20.4459 24.8114 18.9797 25.099 17.0672C25.6188 13.6107 25.6354 9.60832 25.2619 6.13777C25.2136 5.73543 25.1593 5.33362 25.099 4.93249C24.8114 3.01997 23.2505 1.55377 21.3237 1.38628L19.3101 1.21124C15.1114 0.846253 10.8889 0.846253 6.69016 1.21124L4.67652 1.38628C2.74976 1.55377 1.18887 3.01997 0.901271 4.93249C0.840961 5.33355 0.786664 5.73529 0.738381 6.13756ZM6.86337 3.20373C10.9468 2.84876 15.0534 2.84876 19.1369 3.20373L21.1505 3.37877C22.1563 3.4662 22.9711 4.23156 23.1212 5.2299C23.1368 5.33357 23.152 5.4373 23.1667 5.54106L15.7521 9.66033C14.0406 10.6111 11.9596 10.6111 10.2481 9.66033L2.83352 5.54111C2.84827 5.43733 2.86344 5.33359 2.87903 5.22989C3.02916 4.23155 3.84395 3.4662 4.84972 3.37877L6.86337 3.20373ZM23.4115 7.69302C23.6701 10.7167 23.5734 13.7632 23.1212 16.7698C22.9711 17.7681 22.1563 18.5335 21.1505 18.6209L19.1369 18.7959C15.0534 19.1509 10.9468 19.1509 6.86337 18.7959L4.84972 18.6209C3.84395 18.5335 3.02916 17.7681 2.87903 16.7698C2.42692 13.7632 2.33017 10.7167 2.58879 7.69307L9.27682 11.4086C11.5923 12.695 14.4078 12.695 16.7234 11.4086L23.4115 7.69302Z" fill="black" fill-opacity="0.5"/>
</svg>
