<svg width="24" height="24" viewBox="0 0 24 24" fill="none" xmlns="http://www.w3.org/2000/svg">
<circle cx="12" cy="12" r="11.5" stroke="white" stroke-opacity="0.7" stroke-linejoin="round"/>
<path d="M11.2497 18.6666C11.2497 19.0808 11.5855 19.4166 11.9997 19.4166C12.4139 19.4166 12.7497 19.0808 12.7497 18.6666H11.2497ZM12.7497 5.33325C12.7497 4.91904 12.4139 4.58325 11.9997 4.58325C11.5855 4.58325 11.2497 4.91904 11.2497 5.33325H12.7497ZM5.33301 11.2499C4.91879 11.2499 4.58301 11.5857 4.58301 11.9999C4.58301 12.4141 4.91879 12.7499 5.33301 12.7499L5.33301 11.2499ZM18.6663 12.7499C19.0806 12.7499 19.4163 12.4141 19.4163 11.9999C19.4163 11.5857 19.0806 11.2499 18.6663 11.2499V12.7499ZM12.7497 18.6666V5.33325H11.2497V18.6666H12.7497ZM5.33301 12.7499L18.6663 12.7499V11.2499L5.33301 11.2499L5.33301 12.7499Z" fill="white" fill-opacity="0.7"/>
</svg>
