<svg width="20" height="19" viewBox="0 0 20 19" fill="none" xmlns="http://www.w3.org/2000/svg">
<path fill-rule="evenodd" clip-rule="evenodd" d="M10 2.75C5.99594 2.75 2.75 5.99594 2.75 10C2.75 14.0041 5.99594 17.25 10 17.25C14.0041 17.25 17.25 14.0041 17.25 10C17.25 5.99594 14.0041 2.75 10 2.75ZM1.25 10C1.25 5.16751 5.16751 1.25 10 1.25C14.8325 1.25 18.75 5.16751 18.75 10C18.75 14.8325 14.8325 18.75 10 18.75C5.16751 18.75 1.25 14.8325 1.25 10Z" fill="black"/>
<path fill-rule="evenodd" clip-rule="evenodd" d="M10 4.25C10.4142 4.25 10.75 4.58579 10.75 5V9.58431L13.3975 11.239C13.7488 11.4585 13.8555 11.9212 13.636 12.2725C13.4165 12.6238 12.9538 12.7305 12.6025 12.511L9.6025 10.636C9.38321 10.4989 9.25 10.2586 9.25 10V5C9.25 4.58579 9.58579 4.25 10 4.25Z" fill="black"/>
<path fill-rule="evenodd" clip-rule="evenodd" d="M4.53033 0.46967C4.82322 0.762563 4.82322 1.23744 4.53033 1.53033L2.03033 4.03033C1.73744 4.32322 1.26256 4.32322 0.96967 4.03033C0.676777 3.73744 0.676777 3.26256 0.96967 2.96967L3.46967 0.46967C3.76256 0.176777 4.23744 0.176777 4.53033 0.46967Z" fill="black"/>
<path fill-rule="evenodd" clip-rule="evenodd" d="M15.4697 0.46967C15.1768 0.762563 15.1768 1.23744 15.4697 1.53033L17.9697 4.03033C18.2626 4.32322 18.7374 4.32322 19.0303 4.03033C19.3232 3.73744 19.3232 3.26256 19.0303 2.96967L16.5303 0.46967C16.2374 0.176777 15.7626 0.176777 15.4697 0.46967Z" fill="black"/>
</svg>
