<svg width="32" height="32" viewBox="0 0 32 32" fill="none" xmlns="http://www.w3.org/2000/svg">
<path fill-rule="evenodd" clip-rule="evenodd" d="M19.1805 20.5944C15.6468 23.4246 10.4743 23.2018 7.19854 19.9261C3.68382 16.4114 3.68382 10.7129 7.19854 7.19817C10.7133 3.68345 16.4117 3.68345 19.9265 7.19817C23.2022 10.4739 23.4249 15.6464 20.5947 19.1801L27.4689 26.0543C27.8594 26.4448 27.8594 27.078 27.4689 27.4685C27.0784 27.8591 26.4452 27.8591 26.0547 27.4685L19.1805 20.5944ZM8.61275 18.5119C5.87908 15.7782 5.87908 11.3461 8.61275 8.61239C11.3464 5.87872 15.7786 5.87872 18.5122 8.61239C21.2439 11.344 21.2459 15.7717 18.5183 18.5059C18.5162 18.5078 18.5142 18.5098 18.5122 18.5118C18.5102 18.5139 18.5082 18.5159 18.5062 18.5179C15.7721 21.2455 11.3444 21.2435 8.61275 18.5119Z" fill="#C4C4C4" fill-opacity="0.8"/>
</svg>
