<svg width="32" height="32" viewBox="0 0 32 32" fill="none" xmlns="http://www.w3.org/2000/svg">
<path fill-rule="evenodd" clip-rule="evenodd" d="M15.9997 4.10554L13.0493 7.15821C12.7353 7.48313 12.3028 7.66661 11.8509 7.66661H7.66636V11.8511C7.66636 12.303 7.48288 12.7355 7.15796 13.0495L4.10529 15.9999L7.15796 18.9503C7.48288 19.2644 7.66636 19.6969 7.66636 20.1488V24.3333H11.8509C12.3028 24.3333 12.7353 24.5168 13.0493 24.8417L15.9997 27.8943L18.9501 24.8417C19.2641 24.5168 19.6966 24.3333 20.1485 24.3333H24.333V20.1488C24.333 19.6969 24.5165 19.2644 24.8414 18.9503L27.8941 15.9999L24.8414 13.0495C24.5165 12.7355 24.333 12.303 24.333 11.8511V7.66661H20.1485C19.6966 7.66661 19.2641 7.48313 18.9501 7.15821L15.9997 4.10554ZM14.8013 2.46763C15.4564 1.78976 16.5429 1.78976 17.1981 2.46763L20.2899 5.66661H24.6664C25.5868 5.66661 26.333 6.4128 26.333 7.33327V11.7097L29.532 14.8015C30.2099 15.4567 30.2099 16.5432 29.532 17.1984L26.333 20.2902V24.6666C26.333 25.5871 25.5868 26.3333 24.6664 26.3333H20.2899L17.1981 29.5322C16.5429 30.2101 15.4564 30.2101 14.8013 29.5322L11.7095 26.3333H7.33303C6.41255 26.3333 5.66636 25.5871 5.66636 24.6666V20.2902L2.46738 17.1984C1.78952 16.5432 1.78952 15.4567 2.46738 14.8015L5.66636 11.7097V7.33327C5.66636 6.4128 6.41256 5.66661 7.33303 5.66661H11.7095L14.8013 2.46763Z" fill="#C4C4C4" fill-opacity="0.8"/>
<path fill-rule="evenodd" clip-rule="evenodd" d="M9.66636 15.9999C9.66636 12.5021 12.5019 9.66661 15.9997 9.66661C19.4975 9.66661 22.333 12.5021 22.333 15.9999C22.333 19.4977 19.4975 22.3333 15.9997 22.3333C12.5019 22.3333 9.66636 19.4977 9.66636 15.9999ZM15.9997 11.6666C13.6065 11.6666 11.6664 13.6067 11.6664 15.9999C11.6664 18.3932 13.6065 20.3333 15.9997 20.3333C18.3929 20.3333 20.333 18.3932 20.333 15.9999C20.333 13.6067 18.3929 11.6666 15.9997 11.6666Z" fill="#C4C4C4" fill-opacity="0.8"/>
</svg>
