<svg width="32" height="32" viewBox="0 0 32 32" fill="none" xmlns="http://www.w3.org/2000/svg">
<path fill-rule="evenodd" clip-rule="evenodd" d="M14.3175 22.1697C13.286 22.1697 12.4256 21.3814 12.3355 20.3538C12.1472 18.2055 12.0995 16.0475 12.1927 13.8938C12.0803 13.8862 11.9678 13.8784 11.8554 13.8702L9.86936 13.7254C8.59996 13.6329 7.89035 12.2175 8.57567 11.1449C10.0373 8.85759 12.7162 6.29752 14.9208 4.71388C15.5659 4.25048 16.4348 4.25049 17.0799 4.71388C19.2845 6.29752 21.9634 8.85759 23.425 11.1449C24.1103 12.2175 23.4007 13.6329 22.1313 13.7254L20.1453 13.8702C20.0329 13.8784 19.9204 13.8862 19.808 13.8938C19.9012 16.0475 19.8535 18.2055 19.6652 20.3538C19.5751 21.3814 18.7147 22.1697 17.6832 22.1697H14.3175ZM14.2423 13.0167C14.0907 15.3997 14.119 17.7908 14.3271 20.1697H17.6736C17.8817 17.7908 17.91 15.3997 17.7584 13.0167C17.7414 12.7496 17.8322 12.4867 18.0105 12.2871C18.1889 12.0874 18.4398 11.9676 18.7072 11.9544C19.1383 11.9332 19.5692 11.9069 19.9999 11.8755L21.4423 11.7703C20.1629 9.88594 18.5609 8.24027 16.7087 6.9098L16.0003 6.40094L15.292 6.9098C13.4398 8.24027 11.8378 9.88594 10.5584 11.7703L12.0008 11.8755C12.4315 11.9069 12.8624 11.9332 13.2935 11.9544C13.5609 11.9676 13.8118 12.0874 13.9901 12.2871C14.1685 12.4867 14.2593 12.7496 14.2423 13.0167Z" fill="#C4C4C4" fill-opacity="0.8"/>
<path d="M7.66699 22.6667C7.66699 22.1144 7.21928 21.6667 6.66699 21.6667C6.11471 21.6667 5.66699 22.1144 5.66699 22.6667V25.3333C5.66699 26.622 6.71166 27.6667 8.00033 27.6667H24.0003C25.289 27.6667 26.3337 26.622 26.3337 25.3333V22.6667C26.3337 22.1144 25.8859 21.6667 25.3337 21.6667C24.7814 21.6667 24.3337 22.1144 24.3337 22.6667V25.3333C24.3337 25.5174 24.1844 25.6667 24.0003 25.6667H8.00033C7.81623 25.6667 7.66699 25.5174 7.66699 25.3333V22.6667Z" fill="#C4C4C4" fill-opacity="0.8"/>
</svg>
