<svg width="80" height="51" viewBox="0 0 80 51" fill="none" xmlns="http://www.w3.org/2000/svg">
<path d="M51.0568 27.9342C50.1296 29.0739 48.4383 29.2586 47.2793 28.3469L42.6875 24.7346V36.8541C42.6875 38.3136 41.4842 39.4968 40 39.4968C38.5157 39.4968 37.3125 38.3136 37.3125 36.8541V24.7345L32.7204 28.3469C31.5614 29.2586 29.8701 29.0739 28.9429 27.9342C28.0157 26.7945 28.2036 25.1314 29.3626 24.2197L38.3114 17.18C38.7674 16.8174 39.3464 16.5986 39.9773 16.5934C39.9848 16.5934 39.9924 16.5933 40 16.5933L40.0086 16.5934C40.6504 16.5954 41.2393 16.8186 41.7004 17.1895L50.6371 24.2197C51.7961 25.1314 51.984 26.7945 51.0568 27.9342Z" fill="#C4C4C4" fill-opacity="0.8"/>
<path fill-rule="evenodd" clip-rule="evenodd" d="M27.0284 9.34889C30.4746 4.08357 36.49 0.59021 43.3393 0.59021C53.6611 0.59021 62.0986 8.52343 62.69 18.5274C62.9173 18.518 63.1456 18.5133 63.3749 18.5133C72.2361 18.5133 79.4195 25.5769 79.4195 34.2905C79.4195 43.004 72.2361 50.0677 63.3749 50.0677H21.634C10.0064 50.0677 0.580444 40.7988 0.580444 29.365C0.580444 17.9313 10.0064 8.66238 21.634 8.66238C23.4961 8.66238 25.3047 8.90073 27.0284 9.34889ZM43.3393 5.87563C37.784 5.87563 32.9787 9.05509 30.7124 13.6762C30.1031 14.9187 28.6244 15.4913 27.3171 14.9911C25.5587 14.3182 23.6435 13.9478 21.634 13.9478C12.975 13.9478 5.95544 20.8503 5.95544 29.365C5.95544 37.8797 12.975 44.7822 21.634 44.7822H63.3749C69.2676 44.7822 74.0445 40.0849 74.0445 34.2905C74.0445 28.496 69.2676 23.7987 63.3749 23.7987C62.4161 23.7987 61.4908 23.9224 60.6128 24.153C59.752 24.379 58.8333 24.171 58.1598 23.5974C57.4864 23.0239 57.1457 22.1594 57.2504 21.2894C57.3149 20.7531 57.3482 20.2065 57.3482 19.651C57.3482 12.0431 51.0762 5.87563 43.3393 5.87563Z" fill="#C4C4C4" fill-opacity="0.8"/>
</svg>
